<?xml version="1.0" encoding="UTF-8" standalone="no"?>
<!-- Created with Inkscape (http://www.inkscape.org/) -->

<svg
   width="53.297138mm"
   height="42.371696mm"
   viewBox="0 0 53.297138 42.371696"
   version="1.1"
   id="svg4789"
   xmlns="http://www.w3.org/2000/svg"
   xmlns:svg="http://www.w3.org/2000/svg">
  <defs
     id="defs4786">
    <clipPath
       id="a">
      <path
         d="M 0,612 H 792 V 0 H 0 Z"
         style="clip-rule:nonzero;fill:none"
         id="path2" />
    </clipPath>
  </defs>
  <g
     id="layer1"
     transform="translate(-31.004373,-77.348267)">
    <path
       d="m 45.460412,84.858994 h 6.226439 l 6.894248,-4.876271 -8.183562,-2.634456 z"
       style="fill:#280b0b;fill-opacity:1;stroke-width:0.264583"
       id="path7" />
    <path
       d="m 45.460412,84.858994 h 6.226439 l 6.894248,-4.876271 -8.183562,-2.634456 z"
       style="fill:#006cad;fill-opacity:1;stroke-width:0.264583"
       id="path9" />
    <g
       style="fill:#280b0b"
       transform="matrix(0.26458333,0,0,-0.26458333,-19.42521,201.21004)"
       clip-path="url(#a)"
       id="g13">
      <path
         d="M 0,0 12.305,32.49 24.61,0 Z m 139.559,45.12 c -10.442,20.213 -31.111,33.983 -54.916,33.983 -18.206,0 -34.582,-8.053 -45.95,-20.882 l 7.803,-18.439 8.477,-20.028 c 0.786,6.201 3.148,11.844 6.618,16.438 5.495,7.273 13.778,11.909 23.052,11.909 5.966,0 11.52,-1.924 16.19,-5.226 8.284,-5.859 13.777,-16.075 13.777,-27.707 0,-11.173 -5.069,-21.041 -12.812,-26.995 -4.86,-3.737 -10.772,-5.937 -17.155,-5.937 -7.542,0 -14.027,3.019 -19.162,8.06 -3.086,3.03 -5.684,6.791 -7.73,11.066 -0.56,1.316 -30.617,72.309 -30.617,72.309 H -2.524 c 0,0 -51.608,-121.165 -52.113,-121.598 h 35.166 l 8.685,20.76 h 46.182 c 0.097,-0.147 0.203,-0.292 0.302,-0.439 8.552,-12.585 27.267,-21.16 45.984,-21.16 h 2.961 c 23.676,0 44.255,13.617 54.751,33.65 4.723,9.015 7.407,19.326 7.407,30.284 0,10.825 -2.625,21.016 -7.242,29.952"
         style="fill:#006cad;fill-opacity:1"
         transform="translate(245.237,356.76)"
         id="path11" />
    </g>
  </g>
</svg>
